<svg xmlns="http://www.w3.org/2000/svg" width="47" height="48" viewBox="0 0 47 48" fill="none">
  <rect width="47" height="48" rx="13" fill="#F15A2B"/>
  <path d="M32.8184 31.9286C32.3682 31.9378 31.926 31.809 31.5512 31.5595C31.2723 31.3772 30.9462 31.2802 30.613 31.2802C30.2797 31.2802 29.9537 31.3772 29.6747 31.5595C29.2961 31.8006 28.8566 31.9286 28.4077 31.9286C27.9589 31.9286 27.5194 31.8006 27.1408 31.5595C26.8618 31.377 26.5357 31.2799 26.2023 31.2799C25.869 31.2799 25.5429 31.377 25.2639 31.5595C24.8853 31.8006 24.4458 31.9286 23.9969 31.9286C23.5481 31.9286 23.1086 31.8006 22.7299 31.5595C22.4512 31.3772 22.1253 31.28 21.7922 31.28C21.459 31.28 21.1331 31.3772 20.8544 31.5595C20.5111 31.7876 20.1105 31.9144 19.6985 31.9253L19.6758 31.2767C19.9801 31.2695 20.2757 31.1732 20.5258 30.9997C20.9044 30.7587 21.3438 30.6307 21.7925 30.6307C22.2412 30.6307 22.6806 30.7587 23.0591 30.9997C23.3381 31.1821 23.6641 31.2792 23.9974 31.2792C24.3307 31.2792 24.6567 31.1821 24.9357 30.9997C25.3143 30.7585 25.754 30.6304 26.203 30.6304C26.6519 30.6304 27.0916 30.7585 27.4703 30.9997C27.7492 31.1821 28.0753 31.2792 28.4085 31.2792C28.7418 31.2792 29.0679 31.1821 29.3468 30.9997C29.7255 30.7588 30.165 30.6308 30.6138 30.6308C31.0626 30.6308 31.5021 30.7588 31.8808 30.9997C32.1604 31.1825 32.4872 31.2799 32.8213 31.2799C33.1554 31.2799 33.4822 31.1825 33.7618 30.9997C34.1362 30.751 34.5776 30.6224 35.027 30.6313V31.2799C34.6924 31.2708 34.3636 31.3686 34.0884 31.5592C33.7127 31.809 33.2695 31.9379 32.8184 31.9286Z" fill="white"/>
  <path d="M15.1785 31.9287C14.7285 31.938 14.2864 31.8092 13.9117 31.5596C13.6366 31.3689 13.3078 31.2709 12.9731 31.2801V30.6314C13.4233 30.6221 13.8655 30.7509 14.2403 31.0005C14.5153 31.1913 14.844 31.2892 15.1785 31.2801C15.5133 31.2893 15.8421 31.1912 16.1171 31.0002C16.4911 30.7507 16.9326 30.622 17.382 30.6314C17.8205 30.6216 18.2518 30.7444 18.6193 30.9839L18.2921 31.5437C18.0236 31.3631 17.7054 31.2709 17.382 31.2801C17.0487 31.2711 16.7212 31.3688 16.4473 31.559C16.0722 31.8093 15.6294 31.9383 15.1785 31.9287Z" fill="white"/>
  <path d="M32.8195 29.6581C32.3691 29.6673 31.9266 29.5386 31.5514 29.2891C31.2722 29.1066 30.9459 29.0094 30.6123 29.0094C30.2788 29.0094 29.9525 29.1066 29.6733 29.2891C29.2947 29.53 28.8552 29.658 28.4064 29.658C27.9577 29.658 27.5182 29.53 27.1396 29.2891C26.8608 29.1067 26.5349 29.0096 26.2017 29.0096C25.8685 29.0096 25.5426 29.1067 25.2637 29.2891C24.8852 29.5301 24.4457 29.6582 23.9969 29.6582C23.5481 29.6582 23.1087 29.5301 22.7301 29.2891C22.4513 29.1067 22.1253 29.0096 21.7922 29.0096C21.459 29.0096 21.1331 29.1067 20.8542 29.2891C20.4796 29.5387 20.0375 29.6675 19.5874 29.6581C19.1373 29.6675 18.6952 29.5387 18.3206 29.2891C18.0457 29.0983 17.7171 29.0004 17.3827 29.0095C17.0483 29.0004 16.7198 29.0984 16.445 29.2891C16.071 29.5384 15.6296 29.6672 15.1802 29.6581C14.73 29.6675 14.2878 29.5387 13.913 29.2891C13.6376 29.0979 13.3083 29 12.9731 29.0095V28.3608C13.4232 28.3515 13.8653 28.4804 14.24 28.7299C14.5151 28.9207 14.8439 29.0186 15.1786 29.0095C15.5129 29.0186 15.8414 28.9206 16.1162 28.7299C16.4902 28.4806 16.9316 28.3518 17.381 28.3608C17.8314 28.3513 18.2739 28.4801 18.6488 28.7299C18.9238 28.9207 19.2525 29.0187 19.5871 29.0095C19.9216 29.0187 20.2504 28.9207 20.5254 28.7299C20.9039 28.4888 21.3434 28.3608 21.7922 28.3608C22.241 28.3608 22.6804 28.4888 23.059 28.7299C23.3379 28.9123 23.6639 29.0094 23.9971 29.0094C24.3303 29.0094 24.6563 28.9123 24.9352 28.7299C25.3137 28.4888 25.7532 28.3608 26.202 28.3608C26.6508 28.3608 27.0903 28.4888 27.4688 28.7299C27.7477 28.9123 28.0737 29.0094 28.4069 29.0094C28.7402 29.0094 29.0662 28.9123 29.345 28.7299C29.724 28.4889 30.1637 28.3609 30.6128 28.3609C31.0619 28.3609 31.5017 28.4889 31.8806 28.7299C32.16 28.9123 32.4864 29.0093 32.82 29.0093C33.1536 29.0093 33.48 28.9123 33.7594 28.7299C34.1345 28.4805 34.5769 28.3517 35.0272 28.3608V29.0095C34.6919 29 34.3623 29.098 34.0867 29.2891C33.7118 29.5384 33.2696 29.6671 32.8195 29.6581Z" fill="white"/>
  <path d="M32.8184 27.3883C32.3683 27.3975 31.9261 27.2687 31.5513 27.0192C31.2762 26.8284 30.9473 26.7305 30.6127 26.7396C30.3671 26.7312 30.1232 26.7835 29.9028 26.892L29.6167 26.3083C29.9263 26.1565 30.268 26.0816 30.6127 26.09C31.0634 26.0808 31.5061 26.21 31.8811 26.46C32.1608 26.6428 32.4876 26.7402 32.8217 26.7402C33.1558 26.7402 33.4826 26.6428 33.7622 26.46C34.1364 26.2111 34.5777 26.0823 35.0271 26.091V26.7396C34.6925 26.7304 34.3637 26.8283 34.0885 27.0188C33.7128 27.2687 33.2696 27.3976 32.8184 27.3883Z" fill="white"/>
  <path d="M28.4045 27.3881C27.9551 27.3975 27.5136 27.2688 27.1396 27.0194C26.8607 26.8369 26.5345 26.7397 26.2012 26.7397C25.8679 26.7397 25.5417 26.8369 25.2628 27.0194C24.8842 27.2604 24.4446 27.3884 23.9958 27.3884C23.547 27.3884 23.1074 27.2604 22.7288 27.0194C22.4499 26.837 22.1238 26.7399 21.7906 26.7399C21.4573 26.7399 21.1312 26.837 20.8523 27.0194C20.4777 27.2685 20.0359 27.3972 19.5861 27.3881C19.1361 27.3974 18.6939 27.2686 18.3193 27.019C18.0442 26.8283 17.7154 26.7304 17.3807 26.7395C17.0474 26.7305 16.7199 26.8282 16.446 27.0184C16.0713 27.2684 15.6289 27.3975 15.1786 27.3881C14.7285 27.3974 14.2864 27.2686 13.9117 27.019C13.6366 26.8283 13.3078 26.7304 12.9731 26.7395V26.0908C13.4233 26.0815 13.8655 26.2103 14.2403 26.4599C14.5153 26.6507 14.844 26.7486 15.1786 26.7395C15.5133 26.7487 15.8421 26.6506 16.1171 26.4596C16.4911 26.2101 16.9326 26.0814 17.382 26.0908C17.8321 26.0815 18.2742 26.2103 18.6488 26.4599C18.9238 26.6507 19.2525 26.7486 19.5871 26.7395C19.9217 26.7486 20.2506 26.6506 20.5257 26.4599C20.9043 26.2189 21.3438 26.0908 21.7927 26.0908C22.2415 26.0908 22.681 26.2189 23.0596 26.4599C23.3386 26.6423 23.6646 26.7394 23.9979 26.7394C24.3312 26.7394 24.6572 26.6423 24.9362 26.4599C25.3148 26.2187 25.7545 26.0905 26.2035 26.0905C26.6524 26.0905 27.0921 26.2187 27.4708 26.4599C27.7565 26.6521 28.0953 26.7498 28.4395 26.7391C28.4646 26.7395 28.4896 26.7382 28.5144 26.7352L28.6007 27.3781C28.5356 27.3857 28.4701 27.389 28.4045 27.3881Z" fill="white"/>
  <path d="M32.8195 25.1171C32.3691 25.1263 31.9266 24.9975 31.5514 24.748C31.2722 24.5656 30.9459 24.4684 30.6123 24.4684C30.2788 24.4684 29.9525 24.5656 29.6733 24.748C29.2947 24.989 28.8552 25.117 28.4064 25.117C27.9577 25.117 27.5182 24.989 27.1396 24.748C26.8608 24.5657 26.5349 24.4686 26.2017 24.4686C25.8685 24.4686 25.5426 24.5657 25.2637 24.748C24.8852 24.9891 24.4457 25.1172 23.9969 25.1172C23.5481 25.1172 23.1087 24.9891 22.7301 24.748C22.4513 24.5657 22.1253 24.4686 21.7922 24.4686C21.459 24.4686 21.1331 24.5657 20.8542 24.748C20.4796 24.9977 20.0375 25.1265 19.5874 25.1171C19.1373 25.1265 18.6952 24.9977 18.3206 24.748C18.0457 24.5573 17.7171 24.4594 17.3827 24.4685C17.0483 24.4594 16.7198 24.5573 16.445 24.748C16.071 24.9974 15.6296 25.1262 15.1802 25.1171C14.73 25.1265 14.2878 24.9977 13.913 24.748C13.6376 24.5569 13.3083 24.459 12.9731 24.4685V23.8198C13.4232 23.8105 13.8653 23.9393 14.24 24.1889C14.5151 24.3796 14.8439 24.4776 15.1786 24.4685C15.5129 24.4776 15.8414 24.3796 16.1162 24.1889C16.4902 23.9396 16.9316 23.8108 17.381 23.8198C17.8314 23.8103 18.2739 23.9391 18.6488 24.1889C18.9238 24.3797 19.2525 24.4777 19.5871 24.4685C19.9216 24.4777 20.2504 24.3797 20.5254 24.1889C20.9039 23.9478 21.3434 23.8198 21.7922 23.8198C22.241 23.8198 22.6804 23.9478 23.059 24.1889C23.3379 24.3713 23.6639 24.4684 23.9971 24.4684C24.3303 24.4684 24.6563 24.3713 24.9352 24.1889C25.3137 23.9478 25.7532 23.8198 26.202 23.8198C26.6508 23.8198 27.0903 23.9478 27.4688 24.1889C27.7477 24.3713 28.0737 24.4684 28.4069 24.4684C28.7402 24.4684 29.0662 24.3713 29.345 24.1889C29.724 23.9479 30.1637 23.8199 30.6128 23.8199C31.0619 23.8199 31.5017 23.9479 31.8806 24.1889C32.16 24.3712 32.4864 24.4683 32.82 24.4683C33.1536 24.4683 33.48 24.3712 33.7594 24.1889C34.1345 23.9395 34.5769 23.8107 35.0272 23.8198V24.4685C34.6919 24.459 34.3623 24.557 34.0867 24.748C33.7118 24.9973 33.2696 25.1261 32.8195 25.1171Z" fill="white"/>
  <path d="M28.1977 24.8423L27.5857 24.6276C27.7433 24.1748 27.8077 23.6947 27.775 23.2163C27.7423 22.738 27.6131 22.2711 27.3953 21.844L25.1675 17.4815C25.1455 17.4384 25.1335 17.3909 25.1322 17.3426C25.1309 17.2942 25.1404 17.2462 25.1601 17.202C25.1798 17.1578 25.2091 17.1186 25.2459 17.0872C25.2827 17.0558 25.3261 17.0331 25.3728 17.0206L29.8125 15.8368C29.9572 15.799 30.0811 15.7056 30.1572 15.5768C30.2333 15.4481 30.2556 15.2946 30.2191 15.1495C30.1826 15.0045 30.0903 14.8798 29.9622 14.8025C29.8342 14.7252 29.6809 14.7015 29.5355 14.7367L24.1621 16.021C24.0473 16.0482 23.9402 16.1014 23.8492 16.1766C23.7582 16.2518 23.6857 16.3469 23.6374 16.4546C23.5891 16.5623 23.5662 16.6796 23.5705 16.7976C23.5748 16.9155 23.6063 17.0309 23.6623 17.1348L25.258 20.0991C25.2985 20.1744 25.3076 20.2627 25.2833 20.3447C25.259 20.4267 25.2033 20.4958 25.1283 20.5369L23.0688 21.6721L22.7559 21.1038L24.5338 20.1237L23.0919 17.4422C22.9887 17.2508 22.931 17.0382 22.9231 16.8209C22.9152 16.6036 22.9574 16.3874 23.0465 16.189C23.1355 15.9906 23.269 15.8154 23.4366 15.6768C23.6041 15.5382 23.8014 15.4401 24.0129 15.3899L29.3838 14.1059C29.6964 14.0269 30.0277 14.0753 30.3046 14.2406C30.5816 14.4058 30.7816 14.6743 30.8606 14.9869C30.9396 15.2996 30.8911 15.6308 30.7259 15.9078C30.5607 16.1848 30.2922 16.3847 29.9795 16.4637L25.9274 17.5437L27.9733 21.5485C28.2309 22.054 28.3836 22.6064 28.4221 23.1725C28.4607 23.7385 28.3844 24.3065 28.1977 24.8423Z" fill="white"/>
  <path d="M21.6224 21.734L17.6812 23.9058L17.994 24.4736L21.9353 22.3018L21.6224 21.734Z" fill="white"/>
  <path d="M31.1351 22.6852C30.654 22.6852 30.1837 22.5425 29.7837 22.2752C29.3837 22.008 29.0719 21.6281 28.8878 21.1836C28.7037 20.7391 28.6555 20.25 28.7494 19.7782C28.8432 19.3064 29.0749 18.8729 29.4151 18.5328C29.7553 18.1926 30.1887 17.9609 30.6605 17.8671C31.1324 17.7732 31.6214 17.8214 32.0659 18.0055C32.5104 18.1896 32.8903 18.5013 33.1576 18.9014C33.4248 19.3014 33.5675 19.7717 33.5675 20.2527C33.5668 20.8977 33.3103 21.516 32.8543 21.972C32.3983 22.428 31.78 22.6845 31.1351 22.6852ZM31.1351 18.469C30.7823 18.469 30.4374 18.5736 30.1441 18.7696C29.8507 18.9656 29.6221 19.2442 29.4871 19.5701C29.3521 19.8961 29.3167 20.2547 29.3856 20.6007C29.4544 20.9468 29.6243 21.2646 29.8737 21.5141C30.1232 21.7635 30.441 21.9334 30.7871 22.0023C31.1331 22.0711 31.4917 22.0358 31.8177 21.9007C32.1436 21.7657 32.4222 21.5371 32.6182 21.2438C32.8142 20.9504 32.9188 20.6055 32.9188 20.2527C32.9182 19.7798 32.7301 19.3265 32.3957 18.9921C32.0613 18.6577 31.608 18.4696 31.1351 18.469Z" fill="white"/>
</svg>