<svg xmlns="http://www.w3.org/2000/svg" width="149" height="132" viewBox="0 0 149 132" fill="none">
  <path d="M37.8052 61C37.8052 70.9411 45.864 79 55.8052 79L82.8052 79C85.5666 79 87.8052 76.7614 87.8052 74L87.8052 40C87.8052 34.4772 83.328 30 77.8052 30L42.8052 30C40.0437 30 37.8052 32.2386 37.8052 35L37.8052 61Z" fill="#FFF1DA"/>
  <path d="M86.3049 74.9492C84.9503 75.1896 83.6359 75.6993 82.4432 76.4461C79.3349 78.3401 77.5574 81.1871 78.4732 82.8044C79.3889 84.4217 82.651 84.1966 85.7593 82.3025C86.9688 81.5853 88.0378 80.6429 88.9007 79.5336C89.3007 78.9968 89.362 78.3043 89.0572 77.7677L87.8675 75.6667C87.5648 75.1286 86.9515 74.8474 86.3049 74.9492Z" fill="#D5D6DB"/>
  <path d="M78.4409 47.9537C77.4587 48.1282 76.5055 48.4979 75.6406 49.0395C73.3873 50.4126 72.0976 52.4769 72.7611 53.6487C73.4246 54.8205 75.7909 54.657 78.044 53.2841C78.921 52.7637 79.6961 52.08 80.3218 51.2756C80.6115 50.8865 80.6558 50.3847 80.4349 49.9957L79.5734 48.4743C79.3542 48.0843 78.9098 47.88 78.4409 47.9537Z" fill="#D5D6DB"/>
  <path d="M65.6187 48.4934C65.3988 48.4564 65.1659 48.504 64.9653 48.6264L59.6751 51.8463C59.2326 52.1147 59.0634 52.6685 59.2976 53.0833C59.3512 53.1784 59.4236 53.261 59.511 53.3264L72.8684 63.3874L90.5087 52.6505L65.6187 48.4934Z" fill="#029BC5"/>
  <path d="M122.085 48.9373L73.7007 78.846L44.9539 89.4367L30.2403 91.7227L28.5659 88.708L109.234 39.9008C111.638 38.4394 114.329 37.6103 117.036 37.4975C118.222 37.4549 119.395 37.5621 120.529 37.8162C121.534 38.0331 122.49 38.3967 123.369 38.8961C124.35 39.4612 126.201 39.6233 126.817 40.6746C126.819 40.6731 128.313 45.425 122.085 48.9373Z" fill="#E1E6E9"/>
  <path d="M74.0078 73.6709L53.5062 107.671C53.251 108.15 53.4172 108.711 53.8768 108.925C54.1589 109.056 54.501 109.029 54.7857 108.854L60.0975 105.587C61.1192 104.959 62.0192 104.138 62.7421 103.177L102.812 55.1403L74.0078 73.6709Z" fill="#029BC5"/>
  <path d="M21.1159 72.7402C20.7642 72.5995 20.3494 72.6406 20.0024 72.8503L15.6453 75.4834C15.0516 75.8419 14.8256 76.58 15.1404 77.1322C15.2004 77.2372 15.2775 77.3309 15.3694 77.4096L27.9007 88.176L40.7387 80.5821L21.1159 72.7402Z" fill="#029BC5"/>
  <path d="M31.8249 89.6068L25.2928 99.0668C25.1969 99.2026 25.2231 99.3812 25.3512 99.4654C25.4435 99.5261 25.5681 99.523 25.6683 99.4574L29.7741 96.9299C29.806 96.9103 29.8347 96.885 29.8584 96.8557L39.4357 84.9264L31.8249 89.6068Z" fill="#029BC5"/>
  <path d="M119.887 37.9227C118.726 37.6677 117.525 37.5616 116.311 37.6063C115.157 39.2537 114.434 41.1355 114.214 43.0639C114.202 43.453 114.511 43.7502 114.904 43.7278C115.027 43.7207 115.148 43.6828 115.256 43.6175L122.796 39.0088C121.896 38.5058 120.917 38.1401 119.887 37.9227Z" fill="#029BC5"/>
  <path d="M103.332 46.5107L108.198 43.6284L112.926 51.7522L108.06 54.6346L103.332 46.5107Z" fill="#D5D6DB"/>
  <path d="M100.185 49.8221C99.5981 50.1705 99.3749 50.8917 99.6869 51.4329L100.192 52.3097C100.524 52.8387 101.26 52.9703 101.836 52.6036C102.384 52.2544 102.595 51.5749 102.317 51.0484L101.811 50.1716C101.5 49.6309 100.772 49.4743 100.185 49.8221Z" fill="#3A556A"/>
  <path d="M95.7207 52.5946C95.1338 52.943 94.9105 53.6642 95.2225 54.2054L95.7279 55.0822C96.0594 55.6111 96.7953 55.7428 97.3716 55.3761C97.92 55.0269 98.1304 54.3473 97.8525 53.8209L97.3471 52.9441C97.0352 52.4035 96.3073 52.2469 95.7207 52.5946Z" fill="#3A556A"/>
  <path d="M91.2551 55.3678C90.6688 55.7167 90.4465 56.4371 90.7581 56.9778L91.2635 57.8546C91.5951 58.3835 92.3309 58.5152 92.9072 58.1485C93.4557 57.7993 93.666 57.1198 93.3882 56.5933L92.8828 55.7166C92.5708 55.1754 91.8422 55.0193 91.2551 55.3678Z" fill="#3A556A"/>
  <path d="M86.7907 58.1402C86.2045 58.4892 85.9821 59.2096 86.2938 59.7503L86.7992 60.6271C87.1307 61.156 87.8665 61.2877 88.4429 60.921C88.9913 60.5718 89.2017 59.8923 88.9238 59.3658L88.4184 58.489C88.1062 57.948 87.3776 57.7918 86.7907 58.1402Z" fill="#3A556A"/>
  <path d="M82.3268 60.9126C81.7403 61.2616 81.5179 61.9821 81.8297 62.5229L82.3353 63.3997C82.647 63.9403 83.3753 64.0963 83.9619 63.7482C84.5485 63.4 84.7714 62.6796 84.4597 62.1391L83.9541 61.2622C83.6431 60.7212 82.9151 60.5645 82.3281 60.9119C82.3276 60.9122 82.3273 60.9124 82.3268 60.9126Z" fill="#3A556A"/>
  <path d="M77.862 63.6851C77.2755 64.0341 77.053 64.7545 77.3648 65.2953L77.8705 66.1722C78.1822 66.7127 78.9104 66.8687 79.497 66.5206C80.0837 66.1725 80.3065 65.4521 79.9948 64.9115L79.4892 64.0347C79.1783 63.4937 78.4503 63.3369 77.8632 63.6844C77.8627 63.6847 77.8622 63.685 77.862 63.6851Z" fill="#3A556A"/>
  <path d="M73.3976 66.4576C72.8111 66.8065 72.5887 67.527 72.9005 68.0678L73.4061 68.9446C73.7185 69.4847 74.4471 69.6396 75.0331 69.2909C75.6181 68.9429 75.8405 68.224 75.5302 67.6841L75.0246 66.8073C74.713 66.2664 73.9848 66.1098 73.3976 66.4576Z" fill="#3A556A"/>
  <path d="M68.9328 69.23C68.3463 69.579 68.1238 70.2995 68.4356 70.8403L68.9413 71.7171C69.2537 72.2573 69.9823 72.4121 70.5683 72.0635C71.1532 71.7154 71.3756 70.9965 71.0653 70.4566L70.5597 69.5797C70.2482 69.0388 69.5199 68.8822 68.9328 69.23Z" fill="#3A556A"/>
  <path d="M64.4689 72.0025C63.8824 72.3514 63.6599 73.0719 63.9718 73.6127L64.4774 74.4895C64.7898 75.0296 65.5184 75.1845 66.1044 74.8359C66.6894 74.4878 66.9118 73.7689 66.6015 73.2291L66.0959 72.3522C65.784 71.8114 65.0558 71.6548 64.4689 72.0025Z" fill="#3A556A"/>
  <path d="M60.0031 74.7759C59.4165 75.124 59.1936 75.8445 59.5053 76.385L59.506 76.3862L60.0116 77.263C60.324 77.8032 61.0526 77.958 61.6386 77.6094C62.2236 77.2613 62.446 76.5424 62.1357 76.0025L61.63 75.1256C61.3185 74.5847 60.5902 74.4281 60.0031 74.7759Z" fill="#3A556A"/>
  <path d="M55.5397 77.5474C54.9531 77.8955 54.7302 78.6159 55.0419 79.1565L55.0426 79.1576L55.5482 80.0345C55.8607 80.5746 56.5892 80.7294 57.1752 80.3808C57.7602 80.0327 57.9826 79.3138 57.6723 78.774L57.1667 77.8971C56.8549 77.3564 56.1266 77.1998 55.5397 77.5474Z" fill="#3A556A"/>
</svg>