<svg xmlns="http://www.w3.org/2000/svg" width="117" height="34" viewBox="0 0 117 34" fill="none">
  <path d="M74.8547 28.3037L84.454 31.3037L92.5377 23.3037L102.642 30.3037L113.252 28.3037L108.705 13.8037L92.5377 18.8037L83.4436 13.8037L73.8442 15.3037L74.8547 28.3037Z" fill="#F1A501"/>
  <path d="M0 23.368V21.206L6.18197 20.102V23.092C6.21295 24.7173 6.63128 25.944 7.43695 26.772C8.27361 27.5693 9.37366 27.968 10.7371 27.968C12.0696 27.968 13.1231 27.5387 13.8978 26.68C14.7035 25.8213 15.1063 24.6713 15.1063 23.23V0.689999H21.5207V23.23C21.5207 26.2353 20.5136 28.7807 18.4994 30.866C16.4852 32.9513 13.9133 33.994 10.7836 33.994C7.52991 33.994 4.91149 33.028 2.9283 31.096C0.9761 29.1333 0 26.5573 0 23.368Z" fill="black"/>
  <path d="M22.9946 27.14C22.9946 25.208 23.6299 23.6593 24.9004 22.494C26.1708 21.3287 27.8132 20.5927 29.8273 20.286L35.4515 19.458C36.5981 19.3047 37.1713 18.768 37.1713 17.848C37.1713 16.9893 36.8305 16.284 36.1487 15.732C35.498 15.18 34.5529 14.904 33.3134 14.904C32.0119 14.904 30.9739 15.2567 30.1992 15.962C29.4555 16.6673 29.0372 17.5413 28.9442 18.584L23.4594 17.434C23.6764 15.4713 24.6525 13.7387 26.3877 12.236C28.123 10.7333 30.4161 9.982 33.2669 9.982C36.6755 9.982 39.1855 10.7947 40.7968 12.42C42.4082 14.0147 43.2138 16.0693 43.2138 18.584V29.716C43.2138 31.0653 43.3068 32.2613 43.4927 33.304H37.8221C37.6671 32.6293 37.5896 31.7247 37.5896 30.59C36.1332 32.8287 33.8867 33.948 30.8499 33.948C28.4949 33.948 26.5892 33.2733 25.1328 31.924C23.7073 30.5747 22.9946 28.98 22.9946 27.14ZM32.1514 29.394C33.6078 29.394 34.8008 28.9953 35.7304 28.198C36.691 27.37 37.1713 26.0207 37.1713 24.15V23.138L32.0119 23.92C30.1217 24.196 29.1766 25.1467 29.1766 26.772C29.1766 27.508 29.44 28.1367 29.9668 28.658C30.4936 29.1487 31.2218 29.394 32.1514 29.394Z" fill="black"/>
  <path d="M67.4355 0V29.21C67.4355 30.7127 67.4975 32.0773 67.6214 33.304H61.7183C61.5634 32.5373 61.4859 31.6633 61.4859 30.682C60.9592 31.6327 60.1225 32.3993 58.976 32.982C57.8604 33.5647 56.559 33.856 55.0716 33.856C51.8179 33.856 49.1375 32.7367 47.0304 30.498C44.9542 28.2287 43.9161 25.3767 43.9161 21.942C43.9161 18.5993 44.9387 15.7933 46.9839 13.524C49.06 11.2547 51.694 10.12 54.8856 10.12C58.1703 10.12 60.3239 11.0553 61.3465 12.926V0H67.4355ZM50.1446 21.942C50.1446 23.9353 50.6714 25.5147 51.7249 26.68C52.7785 27.8147 54.142 28.382 55.8153 28.382C57.4576 28.382 58.8055 27.7993 59.8591 26.634C60.9127 25.4687 61.4395 23.8893 61.4395 21.896C61.4395 19.9333 60.9127 18.4 59.8591 17.296C58.8055 16.1613 57.4576 15.594 55.8153 15.594C54.1729 15.594 52.8095 16.1613 51.7249 17.296C50.6714 18.4307 50.1446 19.9793 50.1446 21.942Z" fill="black"/>
  <path d="M76.5588 26.726C77.7054 27.8607 79.0843 28.428 80.6956 28.428C82.307 28.428 83.6704 27.8607 84.786 26.726C85.9325 25.5913 86.5058 24.012 86.5058 21.988C86.5058 19.964 85.9325 18.3847 84.786 17.25C83.6704 16.1153 82.307 15.548 80.6956 15.548C79.0843 15.548 77.7054 16.1153 76.5588 17.25C75.4433 18.3847 74.8855 19.964 74.8855 21.988C74.8855 24.012 75.4433 25.5913 76.5588 26.726ZM72.0967 13.386C74.3897 11.1167 77.2561 9.982 80.6956 9.982C84.1352 9.982 86.9861 11.1167 89.2481 13.386C91.5412 15.6553 92.6877 18.5227 92.6877 21.988C92.6877 25.4533 91.5412 28.3207 89.2481 30.59C86.9861 32.8593 84.1352 33.994 80.6956 33.994C77.2561 33.994 74.3897 32.8593 72.0967 30.59C69.8346 28.3207 68.7036 25.4533 68.7036 21.988C68.7036 18.5227 69.8346 15.6553 72.0967 13.386Z" fill="black"/>
  <path d="M99.9845 26.726C101.131 27.8607 102.51 28.428 104.121 28.428C105.733 28.428 107.096 27.8607 108.212 26.726C109.358 25.5913 109.931 24.012 109.931 21.988C109.931 19.964 109.358 18.3847 108.212 17.25C107.096 16.1153 105.733 15.548 104.121 15.548C102.51 15.548 101.131 16.1153 99.9845 17.25C98.869 18.3847 98.3112 19.964 98.3112 21.988C98.3112 24.012 98.869 25.5913 99.9845 26.726ZM95.5223 13.386C97.8154 11.1167 100.682 9.982 104.121 9.982C107.561 9.982 110.412 11.1167 112.674 13.386C114.967 15.6553 116.113 18.5227 116.113 21.988C116.113 25.4533 114.967 28.3207 112.674 30.59C110.412 32.8593 107.561 33.994 104.121 33.994C100.682 33.994 97.8154 32.8593 95.5223 30.59C93.2603 28.3207 92.1292 25.4533 92.1292 21.988C92.1292 18.5227 93.2603 15.6553 95.5223 13.386Z" fill="black"/>
</svg>