<svg width="20" height="20" viewBox="0 0 20 20" fill="none" xmlns="http://www.w3.org/2000/svg">
<g id="navigation 1">
<g id="Navigation">
<path id="Vector" d="M18.0681 2.76009L11.1931 17.7601C11.1356 17.8857 11.038 17.9888 10.9157 18.0531C10.7934 18.1174 10.6532 18.1394 10.5171 18.1156C10.381 18.0917 10.2566 18.0235 10.1634 17.9214C10.0702 17.8194 10.0134 17.6894 10.002 17.5517L9.42071 10.5787L2.44777 9.99746C2.31005 9.98602 2.18001 9.92926 2.07798 9.83606C1.97595 9.74285 1.90769 9.61846 1.88387 9.48234C1.86005 9.34622 1.88201 9.20604 1.94633 9.08372C2.01064 8.96141 2.11368 8.86386 2.23933 8.80634L17.2393 1.93134C17.3553 1.87819 17.4847 1.8618 17.6103 1.88437C17.7358 1.90693 17.8515 1.96737 17.9417 2.05757C18.0319 2.14777 18.0923 2.2634 18.1149 2.38895C18.1374 2.51449 18.121 2.64394 18.0679 2.7599L18.0681 2.76009Z" fill="#080809"/>
</g>
</g>
</svg>
