<svg xmlns="http://www.w3.org/2000/svg" width="92" height="78" viewBox="0 0 92 78" fill="none">
  <path d="M92 60C92 69.9411 83.9411 78 74 78L47 78C44.2386 78 42 75.7614 42 73L42 39C42 33.4772 46.4772 29 52 29L87 29C89.7614 29 92 31.2386 92 34L92 60Z" fill="#FFF1DA"/>
  <path d="M23.5271 50.6573L21.639 49.7534L10.4224 66.338H22.9403L24.1466 65.5515V51.2249L23.5271 50.6573Z" fill="#407093"/>
  <path d="M21.8097 49.8351L17.5646 47.8027H16.7645L4.76074 65.5514L5.47537 66.3379H10.6484L21.8097 49.8351Z" fill="#365E7D"/>
  <path d="M26.3999 65.5518H9.84742C9.09547 65.5518 8.48584 66.1613 8.48584 66.9133V68.6387C8.48584 69.3905 9.09533 70 9.84714 70.0002H26.3999C27.1519 70.0002 27.7615 69.3907 27.7615 68.6387V66.9133C27.7615 66.1613 27.1519 65.5518 26.3999 65.5518Z" fill="#4A80AA"/>
  <path d="M8.76775 68.6387V66.9133C8.76775 66.1614 9.37738 65.5518 10.1293 65.5518H1.36158C0.609627 65.5518 0 66.1612 0 66.9133V68.6387C0 69.3907 0.609627 70.0002 1.36158 70.0002H10.1292C9.37724 70.0002 8.76775 69.3907 8.76775 68.6387Z" fill="#407093"/>
  <path d="M21.2399 39.9824C20.7303 41.0335 20.4424 42.212 20.4424 43.4588C20.4424 46.8656 22.5757 49.7719 25.5783 50.9215C26.8675 50.5177 28.0129 49.7891 28.9177 48.8299V47.089L21.2399 39.9824Z" fill="#4A80AA"/>
  <path d="M20.5767 43.4864C20.5767 42.2686 20.8583 41.1174 21.357 40.091L18.9027 37.8193H17.9069C16.4009 39.24 15.4595 41.2526 15.4595 43.4863C15.4595 47.7894 18.9477 51.2776 23.2508 51.2776C24.1471 51.2776 25.0067 51.1238 25.8078 50.845C22.7628 49.7857 20.5767 46.8922 20.5767 43.4864Z" fill="#407093"/>
  <path d="M65.812 0.924695C64.5791 -0.308232 62.5801 -0.308232 61.3473 0.924695L58.3345 3.93756V4.31941L62.0949 8.23954L62.7991 8.40223L65.8119 5.38937C67.0449 4.15658 67.0449 2.15762 65.812 0.924695Z" fill="#FFD086"/>
  <path d="M66.6449 2.41492C66.5134 1.86915 66.238 1.35085 65.812 0.924695C64.5791 -0.308232 62.5801 -0.308232 61.3473 0.924695L58.3345 3.93756V4.31941L60.3282 6.3978C61.5169 5.16091 62.697 3.94029 63.3039 3.3334C64.3156 2.32182 65.7933 2.31403 66.6449 2.41492Z" fill="#FFC365"/>
  <path d="M55.4976 8.95002C55.463 8.95002 55.428 8.94824 55.3929 8.94482L20.5764 5.51784C19.9958 5.46069 19.5715 4.94376 19.6287 4.36312C19.6858 3.78247 20.203 3.35851 20.7834 3.41525L55.5998 6.84209C56.1803 6.89924 56.6047 7.41617 56.5476 7.99682C56.4938 8.54246 56.0343 8.95002 55.4976 8.95002Z" fill="#365E7D"/>
  <path d="M30.6457 15.4682C30.1772 15.4682 29.7491 15.1541 29.6247 14.6796C29.4766 14.1153 29.8142 13.5378 30.3784 13.3897L55.2285 6.87166C55.7927 6.72387 56.3703 7.06115 56.5183 7.62552C56.6663 8.18976 56.3289 8.76726 55.7645 8.91532L30.9145 15.4334C30.8245 15.4569 30.7343 15.4682 30.6457 15.4682Z" fill="#407093"/>
  <path d="M62.2465 47.1359C61.7093 47.1359 61.2498 46.7279 61.1964 46.1822L57.7907 11.3444C57.734 10.7639 58.1586 10.2471 58.7393 10.1902C59.3199 10.1361 59.8366 10.5583 59.8933 11.1389L63.299 45.9767C63.3557 46.5572 62.9311 47.074 62.3504 47.1308C62.3156 47.1341 62.2808 47.1359 62.2465 47.1359Z" fill="#365E7D"/>
  <path d="M52.2252 37.2477C52.1357 37.2477 52.0446 37.2361 51.9538 37.2122C51.3899 37.0626 51.054 36.4843 51.2035 35.9203L57.8176 10.9743C57.967 10.4102 58.5452 10.0748 59.1093 10.2239C59.6732 10.3734 60.0092 10.9517 59.8596 11.5157L53.2456 36.4618C53.1202 36.9351 52.6927 37.2477 52.2252 37.2477Z" fill="#407093"/>
  <path d="M55.3066 6.96436L58.3272 3.94382L62.7912 8.40788L59.7707 11.4284L55.3066 6.96436Z" fill="#FFC365"/>
  <path d="M57.6008 9.24573C58.3268 8.48557 59.4604 7.29995 60.5569 6.15999L58.3345 3.9375L55.3135 6.95843L57.6008 9.24573Z" fill="#FFA90F"/>
  <path d="M60.4509 13.1516C60.1806 13.1516 59.9102 13.0484 59.704 12.8422L53.8944 7.03281C53.4818 6.62019 53.4818 5.9515 53.8944 5.53875C54.3069 5.12641 54.9757 5.12641 55.3883 5.53875L61.1979 11.3482C61.6105 11.7608 61.6105 12.4295 61.1979 12.8422C60.9916 13.0486 60.7213 13.1516 60.4509 13.1516Z" fill="#4A80AA"/>
  <path d="M61.1328 49.0375L25.762 13.3599C21.0725 23.9465 20.2583 35.3112 23.7689 45.1113C33.4644 53.8572 47.9477 55.2002 61.281 49.7025L61.1328 49.0375Z" fill="#B5DCFF"/>
  <path d="M25.9501 13.5502L17.8461 5.37598L17.034 5.45609C11.3244 19.3033 12.9915 34.392 22.6682 44.0686C23.2543 44.6548 23.8608 45.2109 24.4852 45.7385C20.406 35.95 21.069 24.3079 25.9501 13.5502Z" fill="#8BCAFF"/>
  <path d="M64.3651 46.5015L28.4916 10.6279C28.1385 10.6823 27.7987 10.8429 27.5269 11.1146L25.9665 12.6752C25.6314 13.0102 25.4647 13.4479 25.46 13.8872L61.2197 49.6468C61.7514 50.1785 62.6134 50.1785 63.1451 49.6468L64.3652 48.4269C64.8968 47.8953 64.8968 47.0332 64.3651 46.5015Z" fill="#DBEDFF"/>
  <path d="M26.0204 12.7021L27.5482 11.1743C27.8296 10.8929 28.1849 10.7318 28.5516 10.6882L20.2353 2.37192C19.7036 1.84022 18.8416 1.84022 18.3098 2.37192L17.0897 3.59199C16.558 4.12369 16.558 4.9857 17.0897 5.5174L25.5229 13.9506C25.5118 13.5 25.6766 13.0459 26.0204 12.7021Z" fill="#B5DCFF"/>
</svg>